# xmcd
#
# Track frame offsets: 
#        150
#        21002
#        43172
#        58397
#        78207
#        102715
#        128417
#        147642
#        167130
#        185187
#        205175
#        234745
#
# Disc length: 3174 seconds
#
# Revision: 2
# Processed by: cddbd v1.5.2PL0 Copyright (c) Steve Scherf et al.
# Submitted via: ExactAudioCopy v1.3
#
DISCID=b30c640c
DTITLE=Bush - Sixteen Stone
DYEAR=1994
DGENRE=Alternative
TTITLE0=Everything Zen
TTITLE1=Swim
TTITLE2=Bomb
TTITLE3=Little Things
TTITLE4=Comedown
TTITLE5=Body
TTITLE6=Machinehead
TTITLE7=Testosterone
TTITLE8=Monkey
TTITLE9=Glycerine
TTITLE10=Alien
TTITLE11=X-Girlfriend
EXTD=
EXTT0=
EXTT1=
EXTT2=
EXTT3=
EXTT4=
EXTT5=
EXTT6=
EXTT7=
EXTT8=
EXTT9=
EXTT10=
EXTT11=
PLAYORDER=
